<svg xmlns="http://www.w3.org/2000/svg" width="151" height="151" viewBox="0 0 151 151" fill="none">
<path d="M75.4473 0.0439453C34.0473 0.0439453 0.447266 33.6439 0.447266 75.0439C0.447266 116.444 34.0473 150.044 75.4473 150.044C116.847 150.044 150.447 116.444 150.447 75.0439C150.447 33.6439 116.847 0.0439453 75.4473 0.0439453ZM75.4473 30.0439C89.9223 30.0439 101.697 41.8189 101.697 56.2939C101.697 70.7689 89.9223 82.5439 75.4473 82.5439C60.9723 82.5439 49.1973 70.7689 49.1973 56.2939C49.1973 41.8189 60.9723 30.0439 75.4473 30.0439ZM75.4473 135.044C60.2223 135.044 42.2223 128.894 29.3973 113.444C42.5343 103.137 58.7494 97.535 75.4473 97.535C92.1451 97.535 108.36 103.137 121.497 113.444C108.672 128.894 90.6723 135.044 75.4473 135.044Z" fill="#C4C4C4"/>
</svg>